<?xml version="1.0" standalone="no"?>
<!DOCTYPE svg PUBLIC "-//W3C//DTD SVG 20010904//EN"
 "http://www.w3.org/TR/2001/REC-SVG-20010904/DTD/svg10.dtd">
<svg version="1.0" xmlns="http://www.w3.org/2000/svg"
 width="260.000000pt" height="260.000000pt" viewBox="0 0 260.000000 260.000000"
 preserveAspectRatio="xMidYMid meet">
<metadata>
Created by potrace 1.11, written by Peter Selinger 2001-2013
</metadata>
<g transform="translate(0.000000,260.000000) scale(0.100000,-0.100000)"
fill="#000000" stroke="none">
<path d="M0 1300 l0 -1300 1300 0 1300 0 0 40 0 40 -1260 0 -1260 0 0 286 0
286 84 -3 85 -4 15 30 c13 26 15 27 15 9 1 -13 9 -24 21 -27 15 -4 20 -14 20
-36 0 -20 5 -31 14 -31 9 0 20 33 35 100 11 56 21 108 21 117 0 48 11 -11 29
-166 12 -95 24 -178 27 -182 3 -5 11 -9 19 -9 9 0 21 33 36 101 l23 101 67 -4
c67 -4 68 -3 83 27 12 26 15 27 15 9 1 -13 9 -24 21 -27 15 -4 20 -14 20 -36
0 -20 5 -31 14 -31 9 0 20 33 35 100 11 56 21 108 21 117 0 48 11 -11 29 -166
12 -95 24 -178 27 -182 3 -5 11 -9 19 -9 13 0 55 154 55 202 0 19 5 20 99 16
l100 -3 15 30 c13 26 15 27 15 9 1 -13 9 -24 21 -27 15 -4 20 -14 20 -36 0
-20 5 -31 14 -31 9 0 20 33 35 100 11 56 21 108 21 117 0 48 11 -11 29 -166
12 -95 24 -178 27 -182 3 -5 11 -9 19 -9 9 0 21 35 37 103 l23 102 102 0 102
0 15 30 c13 26 15 27 15 9 1 -13 9 -24 21 -27 15 -4 20 -14 20 -36 0 -20 5
-31 14 -31 9 0 20 33 35 100 11 56 21 108 21 117 0 48 11 -11 29 -166 12 -95
24 -178 27 -182 16 -27 34 -4 49 64 9 39 21 89 26 110 l10 39 89 -4 89 -3 15
30 c13 26 15 27 15 9 1 -13 9 -24 21 -27 15 -4 20 -14 20 -36 0 -20 5 -31 14
-31 9 0 20 33 35 100 11 56 21 108 21 117 0 48 11 -11 29 -166 12 -95 24 -178
27 -182 3 -5 11 -9 19 -9 9 0 21 33 36 100 l22 100 129 0 c107 0 128 2 128 15
0 13 -21 15 -130 15 -71 0 -133 1 -137 3 -5 1 -18 -34 -30 -78 -12 -44 -22
-73 -22 -65 -1 8 -10 92 -22 185 -28 229 -43 242 -79 70 -12 -55 -23 -106 -25
-112 -5 -16 -35 -5 -35 12 0 7 -7 18 -15 25 -12 10 -18 7 -32 -19 -18 -30 -19
-31 -100 -32 -46 -1 -89 -2 -95 -3 -7 0 -23 -37 -35 -81 -12 -44 -22 -73 -22
-65 -1 8 -10 92 -22 185 -28 229 -43 242 -79 70 -12 -55 -23 -106 -25 -112 -5
-16 -35 -5 -35 12 0 7 -7 18 -15 25 -12 10 -18 7 -32 -19 l-18 -32 -105 2
-105 2 -22 -79 c-12 -44 -22 -72 -22 -64 -1 8 -10 92 -22 185 -28 229 -43 242
-79 70 -12 -55 -23 -106 -25 -112 -5 -16 -35 -5 -35 12 0 7 -7 18 -15 25 -12
10 -18 7 -32 -19 l-18 -30 -100 -3 -100 -3 -22 -80 c-12 -44 -22 -73 -22 -65
-1 8 -10 92 -22 185 -28 229 -43 242 -79 70 -12 -55 -23 -106 -25 -112 -5 -16
-35 -5 -35 12 0 7 -7 18 -15 25 -12 10 -18 7 -32 -19 -17 -29 -22 -31 -73 -31
-31 0 -61 5 -68 12 -13 13 -23 -7 -42 -95 -7 -31 -14 -56 -16 -55 -1 2 -12 84
-24 183 -29 240 -43 254 -80 80 -12 -55 -23 -106 -25 -112 -5 -16 -35 -5 -35
12 0 7 -7 18 -15 25 -12 10 -18 7 -32 -19 -18 -30 -19 -31 -95 -31 l-78 0 0
260 0 260 275 0 276 0 13 31 13 31 7 -61 c5 -44 11 -61 22 -61 18 0 21 8 38
101 11 60 14 67 15 34 1 -22 4 -70 8 -107 5 -56 9 -68 24 -68 14 0 19 11 24
52 3 29 10 80 14 113 l9 60 2 -70 c5 -144 14 -200 33 -203 11 -2 17 3 18 15 0
10 6 59 13 108 l12 90 8 -52 c9 -59 29 -70 48 -28 l11 25 289 0 289 0 13 31
13 31 7 -61 c5 -44 11 -61 22 -61 18 0 21 8 38 101 11 60 14 67 15 34 1 -22 4
-70 8 -107 5 -56 9 -68 24 -68 14 0 19 11 24 53 3 28 10 79 14 112 l9 60 2
-70 c5 -144 14 -200 33 -203 11 -2 17 3 18 15 0 10 6 59 13 108 l12 90 8 -52
c9 -59 29 -70 48 -28 l11 25 364 0 c313 0 363 2 363 15 0 22 -738 27 -750 6
-5 -9 -13 20 -21 77 -12 86 -23 110 -35 79 -2 -7 -11 -57 -18 -112 l-14 -100
-1 70 c-3 91 -15 202 -24 211 -16 17 -27 -17 -40 -121 l-13 -110 -8 86 c-12
141 -37 148 -58 16 -7 -47 -15 -72 -20 -65 -4 7 -8 23 -8 34 0 38 -30 38 -46
-1 -7 -19 -14 -41 -14 -50 0 -14 -34 -15 -292 -15 -216 1 -293 -2 -299 -11 -4
-6 -13 29 -20 80 -12 85 -23 109 -35 78 -2 -7 -11 -57 -18 -112 l-14 -100 -1
70 c-3 91 -15 202 -24 211 -16 17 -27 -17 -40 -121 l-13 -110 -8 86 c-12 141
-37 148 -58 16 -7 -47 -15 -72 -20 -65 -4 7 -8 23 -8 34 0 38 -30 38 -46 -1
-7 -19 -14 -41 -14 -50 0 -13 -34 -15 -270 -15 l-270 0 0 260 c0 245 1 260 18
251 9 -5 55 -32 102 -61 102 -61 175 -85 236 -75 50 7 193 76 269 129 109 76
253 158 304 173 98 28 112 22 483 -205 118 -72 190 -97 252 -88 67 10 235 96
326 167 64 50 212 128 265 140 64 14 135 -4 208 -52 26 -17 50 -29 54 -26 15
16 -14 41 -84 75 -109 51 -170 51 -274 0 -40 -21 -103 -57 -139 -82 -126 -86
-271 -168 -322 -183 -42 -13 -61 -13 -103 -4 -54 12 -169 74 -290 155 -39 26
-112 68 -164 94 -81 41 -102 47 -156 47 -50 0 -74 -6 -136 -37 -40 -21 -103
-57 -139 -82 -136 -93 -284 -175 -335 -187 -71 -16 -133 4 -265 83 l-105 63
-3 223 c-1 122 0 222 3 222 3 0 47 -25 97 -55 109 -66 182 -90 244 -80 50 7
193 76 269 129 109 76 253 158 304 173 98 28 112 22 483 -205 118 -72 190 -97
252 -88 67 10 235 96 326 167 64 50 212 128 265 140 65 14 139 -5 215 -56 29
-20 55 -33 59 -30 13 14 -20 43 -94 80 -109 55 -170 56 -276 3 -40 -21 -103
-57 -139 -82 -126 -86 -271 -168 -322 -183 -42 -13 -61 -13 -103 -4 -54 12
-169 74 -290 155 -39 26 -112 68 -164 94 -81 41 -102 47 -156 47 -50 0 -74 -6
-136 -37 -40 -21 -103 -57 -139 -82 -136 -93 -284 -175 -335 -187 -70 -16
-131 3 -262 81 l-103 61 0 169 0 170 -40 0 -40 0 0 -1300z"/>
</g>
</svg>
